HIERARCHY
ROOT Hips
{
	OFFSET -3.958830 18.904000 13.208200
	CHANNELS 6 Xposition Yposition Zposition Zrotation Yrotation Xrotation 
	JOINT LHipJoint
	{
		OFFSET 0.000000 0.000000 0.000000
		CHANNELS 3 Zrotation Yrotation Xrotation
		JOINT LeftUpLeg
		{
			OFFSET 1.800000 -1.400000 0.085000
			CHANNELS 3 Zrotation Yrotation Xrotation
			JOINT LeftLeg
			{
				OFFSET 2.215000 -6.000000 0.000000
				CHANNELS 3 Zrotation Yrotation Xrotation
				JOINT LeftFoot
				{
					OFFSET 2.500000 -6.900000 0.000000
					CHANNELS 3 Zrotation Yrotation Xrotation
					JOINT LeftToeBase
					{
						OFFSET 0.200000 -0.500000 1.950000
						CHANNELS 3 Zrotation Yrotation Xrotation
						End Site
						{
							OFFSET 0.000000 0.000000 0.000000
						}
					}
				}
			}
		}
	}
	JOINT RHipJoint
	{
		OFFSET 0.000000 0.000000 0.000000
		CHANNELS 3 Zrotation Yrotation Xrotation
		JOINT RightUpLeg
		{
			OFFSET -1.800000 -1.400000 0.085000
			CHANNELS 3 Zrotation Yrotation Xrotation
			JOINT RightLeg
			{
				OFFSET -2.215000 -6.000000 0.000000
				CHANNELS 3 Zrotation Yrotation Xrotation
				JOINT RightFoot
				{
					OFFSET -2.500000 -6.900000 0.000000
					CHANNELS 3 Zrotation Yrotation Xrotation
					JOINT RightToeBase
					{
						OFFSET -0.200000 -0.500000 1.950000
						CHANNELS 3 Zrotation Yrotation Xrotation
						End Site
						{
							OFFSET 0.000000 0.000000 0.000000
						}
					}
				}
			}
		}
	}
	JOINT LowerBack
	{
		OFFSET 0.000000 0.000000 0.000000
		CHANNELS 3 Zrotation Yrotation Xrotation
		JOINT Spine
		{
			OFFSET -0.087000 1.940000 -0.288900
			CHANNELS 3 Zrotation Yrotation Xrotation
			JOINT Spine1
			{
				OFFSET 0.000000 1.950000 0.060000
				CHANNELS 3 Zrotation Yrotation Xrotation
				JOINT Neck
				{
					OFFSET 0.000000 0.000000 0.000000
					CHANNELS 3 Zrotation Yrotation Xrotation
					JOINT Neck1
					{
						OFFSET 0.000000 1.600000 0.340000
						CHANNELS 3 Zrotation Yrotation Xrotation
						JOINT Head
						{
							OFFSET 0.000000 1.667000 -0.240000
							CHANNELS 3 Zrotation Yrotation Xrotation
							End Site
							{
								OFFSET 0.000000 0.000000 0.000000
							}
						}
					}
				}
				JOINT LeftShoulder
				{
					OFFSET 0.000000 0.000000 0.000000
					CHANNELS 3 Zrotation Yrotation Xrotation
					JOINT LeftArm
					{
						OFFSET 2.700000 1.550000 -0.730000
						CHANNELS 3 Zrotation Yrotation Xrotation
						JOINT LeftForeArm
						{
							OFFSET 5.450000 0.000000 0.000000
							CHANNELS 3 Zrotation Yrotation Xrotation
							JOINT LeftHand
							{
								OFFSET 3.450000 0.000000 0.000000
								CHANNELS 3 Zrotation Yrotation Xrotation
								JOINT LeftHandIndex1
								{
									OFFSET 0.750000 0.000000 0.000000
									CHANNELS 3 Zrotation Yrotation Xrotation
									End Site
									{
										OFFSET 0.000000 0.000000 0.000000
									}
								}
							}
						}
					}
				}
				JOINT RightShoulder
				{
					OFFSET 0.000000 0.000000 0.000000
					CHANNELS 3 Zrotation Yrotation Xrotation
					JOINT RightArm
					{
						OFFSET -2.700000 1.550000 -0.730000
						CHANNELS 3 Zrotation Yrotation Xrotation
						JOINT RightForeArm
						{
							OFFSET -5.450000 0.000000 0.000000
							CHANNELS 3 Zrotation Yrotation Xrotation
							JOINT RightHand
							{
								OFFSET -3.450000 0.000000 0.000000
								CHANNELS 3 Zrotation Yrotation Xrotation
								JOINT RightHandIndex1
								{
									OFFSET -0.750000 0.000000 0.000000
									CHANNELS 3 Zrotation Yrotation Xrotation
									End Site
									{
										OFFSET 0.000000 0.000000 0.000000
									}
								}
							}
						}
					}
				}
			}
		}
	}
}
MOTION
Frames: 8
Frame Time: 0.016667
0.345240 17.223940 -2.521430 -3.919099 2.128446 -2.194372 -15.419600 14.905681 3.806306 3.617558 -1.109704 -10.713788 -8.055857 4.443619 3.717757 0.330282 2.917076 3.326428 0.683100 0.665830 0.733930 17.731231 -9.956462 3.218991 3.437224 1.176397 -10.904048 3.259137 -3.106000 9.674004 -0.429196 -1.991399 3.470577 0.048710 -0.568430 0.130470 -2.540723 -5.927110 -8.593895 18.734051 -6.995394 23.911911 -7.764479 2.427542 -27.051835 6.516493 -5.252764 -18.920533 -22.862018 12.260677 73.264892 -1.679270 1.031130 2.473400 -6.299214 -1.295717 3.505584 -17.671472 8.372170 -1.467667 119.823624 -3.661551 3.502461 -2.953527 3.521273 0.474180 -0.516920 0.702370 0.091700 -3.163804 12.353786 13.738559 27.915408 -13.357885 -7.265894 -126.990391 14.605987 -27.514768 2.863436 -2.271717 0.364370 -0.197990 -0.551000 0.081520 
0.356340 17.193080 -2.444060 -3.093156 2.206275 1.787569 -15.396542 14.759625 3.981297 2.133753 -1.646576 -13.278905 -8.930775 4.129195 2.433912 0.104660 2.921460 3.358900 0.581120 0.506600 0.696470 17.720913 -9.933810 3.335825 2.113135 1.858687 -13.062569 4.867080 -2.842248 6.673827 -0.285622 -1.912942 3.488668 0.070360 -0.408230 0.133910 -2.559749 -5.747566 -8.891143 18.333215 -5.364455 18.756744 -8.024837 3.537059 -30.341375 5.870741 -3.948928 -18.144393 -18.511492 10.147721 74.160640 -1.205710 1.119780 6.305430 -3.512103 -2.151198 3.263024 -18.236612 0.042384 0.477538 122.698379 7.656191 24.567489 -3.253088 3.619754 0.438490 -0.357770 0.538660 0.028390 -4.713064 12.189278 11.932269 27.211023 -7.674946 -6.823173 -123.898007 0.313873 4.021847 3.006559 -2.478537 0.222790 -0.148350 -0.426680 0.016140 
0.372910 17.157130 -2.438720 -3.786695 2.035371 1.732238 -15.420452 14.725594 3.991685 2.873873 -1.454204 -12.636380 -9.716679 4.165166 1.469999 0.085769 3.146479 3.284333 0.571920 0.494980 0.688850 17.719625 -9.789733 3.375742 1.788979 1.816959 -11.710983 6.619057 -2.982236 5.133043 -0.295574 -2.130093 3.391975 0.098040 -0.366740 0.177750 -2.524094 -5.939131 -8.952446 19.575858 -5.210424 18.613856 -8.580740 3.753592 -29.336396 5.931375 -3.427604 -17.581182 -16.860343 8.599596 73.670636 -3.057420 0.854990 5.045200 -2.964238 -3.937359 2.548514 -17.181868 -5.947186 0.374876 128.075287 15.236792 40.636031 -3.416775 3.774046 0.388290 -0.295330 0.491710 0.002120 -5.621746 13.757587 11.384634 25.545160 -3.164362 -7.037515 -122.825045 -9.095290 20.079605 3.128117 -2.562672 0.219630 -0.155360 -0.381240 0.014300 
0.373440 17.159750 -2.463990 -4.115605 2.385462 0.133541 -15.416594 14.662914 3.940090 3.359502 -1.173308 -10.681392 -9.667173 4.207970 1.058658 0.161383 3.223440 3.269106 0.682160 0.618450 0.753200 17.736068 -9.829473 3.376572 1.110542 1.391828 -9.745925 7.895872 -3.185211 4.546218 -0.396235 -2.358316 3.294269 0.165660 -0.425760 0.171880 -2.564502 -5.742567 -8.906135 19.560003 -5.340678 20.611144 -9.042151 3.724992 -28.480106 5.455221 -3.126342 -17.474809 -15.725066 7.340161 74.829201 -1.900350 -1.194610 3.350710 -3.159393 -4.583792 2.290732 -15.867861 -9.138506 1.168661 130.682984 14.145325 40.228174 -3.305924 3.859950 0.385460 -0.351070 0.536870 0.050800 -4.838147 14.196995 11.626363 24.814519 -2.747314 -7.099974 -121.166056 -8.874234 18.160885 3.128862 -2.593334 0.260100 -0.169090 -0.472940 0.033020 
0.373000 17.177710 -2.562370 -4.222021 2.556033 -4.842462 -15.509713 14.701999 3.846906 4.267967 -0.463117 -6.167439 -9.298783 4.535993 1.059410 0.237156 3.547135 3.138088 0.738970 0.671020 0.834920 17.692062 -9.799039 3.283112 0.027653 0.391052 -5.360754 8.452494 -3.738568 4.702447 -0.548287 -2.739671 3.155758 0.169480 -0.534180 0.174820 -2.381208 -5.885984 -8.792434 17.642878 -5.743961 27.176418 -7.798394 3.319975 -24.024789 6.223294 -2.204584 -17.534337 -13.729160 5.641361 75.750860 -3.882090 -2.133560 -1.859490 -6.944209 -7.186900 2.660486 -10.847052 -8.403335 0.157362 131.703074 9.856374 29.514884 -3.163279 3.758927 0.455480 -0.432150 0.614830 0.015500 -2.750484 15.765258 12.180002 22.190658 -5.447933 -9.122188 -117.380151 -4.205447 6.715172 3.014577 -2.454144 0.297400 -0.164020 -0.486910 0.003540 
0.383940 17.201270 -2.730690 -4.080498 2.090274 -13.418904 -15.539081 14.622909 3.732812 5.420061 0.573762 1.640986 -8.469630 5.216469 1.743003 0.447276 4.105227 2.947082 0.777930 0.684740 0.915470 17.741183 -9.833262 3.141327 -2.158658 -1.041423 1.501024 9.092605 -4.889873 6.462543 -0.790524 -3.456212 2.890823 0.128610 -0.694770 0.174100 -2.407808 -5.699742 -8.592736 15.681309 -6.176872 38.600695 -7.456933 2.506412 -14.066744 6.739418 -1.416029 -17.587994 -12.019812 3.601614 71.111200 -4.078020 -2.939340 -10.753780 -9.492225 -10.980107 4.118083 -6.371587 -4.881841 -3.116694 129.444457 2.788847 6.677671 -2.983197 3.568825 0.569070 -0.576120 0.717290 -0.021400 -2.096452 17.856977 12.554390 21.665048 -10.252878 -14.464921 -112.697713 3.505540 -10.814594 2.965614 -2.303001 0.335390 -0.212520 -0.528510 -0.038560 
0.388040 17.224400 -2.904360 -3.963347 0.824251 -21.345984 -15.449967 14.370554 3.572719 6.448644 1.377756 7.837357 -7.670788 6.059143 4.009862 0.620473 4.705284 2.818457 0.603440 0.467430 0.820440 17.877118 -10.097838 3.036588 -3.684686 -1.847835 6.469634 8.615741 -6.009763 9.608251 -0.853906 -4.187801 2.696115 -0.003250 -0.648480 0.173500 -2.689999 -4.813101 -8.322017 14.588431 -6.273561 47.584735 -7.112352 0.987276 3.149752 6.501336 -1.437232 -15.816067 -9.632357 -0.110116 54.935296 -5.902060 -2.200240 -18.178040 -6.399013 -14.041262 5.323879 -4.593318 -1.331031 -9.586711 123.109404 -2.767913 -14.473826 -3.112600 3.427145 0.561300 -0.550300 0.629970 -0.077360 -6.173733 18.618270 12.336984 23.946626 -11.578647 -21.285683 -105.177515 12.913076 -28.446308 2.955380 -2.158365 0.277470 -0.239620 -0.446610 -0.065300 
0.402060 17.280160 -3.031280 -3.484653 0.457846 -23.098579 -15.433814 14.428379 3.412091 5.210710 1.620512 7.340216 -5.821705 6.192926 6.942168 0.633686 4.641554 2.940909 0.414630 0.283460 0.691510 17.885207 -10.431556 2.762012 -4.511995 -1.318045 3.781513 7.767549 -6.617003 15.467518 -0.677100 -4.321122 2.730024 -0.090550 -0.478010 0.152120 -2.708626 -4.389810 -7.941357 12.525630 -5.145706 51.046975 -5.558440 0.525712 11.941824 6.008074 -1.145343 -13.565818 -5.838787 -3.562275 40.743107 -7.097600 -1.075540 -19.293860 -0.030490 -10.231943 4.975195 -8.006742 -1.116787 -11.660076 117.838206 -13.777291 -34.300756 -3.269364 3.306328 0.430360 -0.411770 0.478790 -0.081200 -12.035731 13.617714 11.282358 25.592976 -11.367271 -22.111490 -96.188035 27.560310 -40.455872 2.907267 -1.977843 0.201830 -0.212280 -0.386410 -0.040520 
